<mxfile host="app.diagrams.net" agent="Mozilla/5.0 (Windows NT 10.0; Win64; x64) AppleWebKit/537.36 (KHTML, like Gecko) Chrome/129.0.0.0 Safari/537.36" version="24.7.16">
  <diagram name="Página-1" id="u6T9cV1qF89qS3foGhDz">
    <mxGraphModel dx="1706" dy="1071" grid="1" gridSize="10" guides="1" tooltips="1" connect="1" arrows="1" fold="1" page="1" pageScale="1" pageWidth="827" pageHeight="1169" math="0" shadow="0">
      <root>
        <mxCell id="0" />
        <mxCell id="1" parent="0" />
        <mxCell id="m5_ttSZBMwDCDNjlKkau-1" value="BANCO" style="whiteSpace=wrap;html=1;align=center;" vertex="1" parent="1">
          <mxGeometry x="270" y="190" width="100" height="40" as="geometry" />
        </mxCell>
        <mxCell id="m5_ttSZBMwDCDNjlKkau-2" value="CONTA" style="whiteSpace=wrap;html=1;align=center;" vertex="1" parent="1">
          <mxGeometry x="240" y="560" width="100" height="40" as="geometry" />
        </mxCell>
        <mxCell id="m5_ttSZBMwDCDNjlKkau-3" value="CLIENTE" style="whiteSpace=wrap;html=1;align=center;" vertex="1" parent="1">
          <mxGeometry x="1080" y="580" width="100" height="40" as="geometry" />
        </mxCell>
        <mxCell id="m5_ttSZBMwDCDNjlKkau-4" value="MOVIMENTOS" style="whiteSpace=wrap;html=1;align=center;" vertex="1" parent="1">
          <mxGeometry x="1060" y="110" width="100" height="40" as="geometry" />
        </mxCell>
        <mxCell id="m5_ttSZBMwDCDNjlKkau-5" value="" style="endArrow=none;html=1;rounded=0;entryX=0.5;entryY=1;entryDx=0;entryDy=0;exitX=0.5;exitY=0;exitDx=0;exitDy=0;" edge="1" parent="1" source="m5_ttSZBMwDCDNjlKkau-6" target="m5_ttSZBMwDCDNjlKkau-1">
          <mxGeometry width="50" height="50" relative="1" as="geometry">
            <mxPoint x="320" y="350" as="sourcePoint" />
            <mxPoint x="370" y="350" as="targetPoint" />
          </mxGeometry>
        </mxCell>
        <mxCell id="m5_ttSZBMwDCDNjlKkau-6" value="SwiftCode" style="ellipse;whiteSpace=wrap;html=1;align=center;fontStyle=4;" vertex="1" parent="1">
          <mxGeometry x="240" y="290" width="100" height="40" as="geometry" />
        </mxCell>
        <mxCell id="m5_ttSZBMwDCDNjlKkau-7" value="Pais" style="ellipse;whiteSpace=wrap;html=1;align=center;" vertex="1" parent="1">
          <mxGeometry x="420" y="350" width="100" height="40" as="geometry" />
        </mxCell>
        <mxCell id="m5_ttSZBMwDCDNjlKkau-8" value="CapitalSocial" style="ellipse;whiteSpace=wrap;html=1;align=center;" vertex="1" parent="1">
          <mxGeometry x="110" y="160" width="100" height="40" as="geometry" />
        </mxCell>
        <mxCell id="m5_ttSZBMwDCDNjlKkau-9" value="Nome" style="ellipse;whiteSpace=wrap;html=1;align=center;" vertex="1" parent="1">
          <mxGeometry x="270" y="100" width="100" height="40" as="geometry" />
        </mxCell>
        <mxCell id="m5_ttSZBMwDCDNjlKkau-10" value="Morada" style="ellipse;whiteSpace=wrap;html=1;align=center;" vertex="1" parent="1">
          <mxGeometry x="400" y="230" width="100" height="40" as="geometry" />
        </mxCell>
        <mxCell id="m5_ttSZBMwDCDNjlKkau-11" value="Rua" style="ellipse;whiteSpace=wrap;html=1;align=center;" vertex="1" parent="1">
          <mxGeometry x="580" y="300" width="100" height="40" as="geometry" />
        </mxCell>
        <mxCell id="m5_ttSZBMwDCDNjlKkau-12" value="NumPorta" style="ellipse;whiteSpace=wrap;html=1;align=center;" vertex="1" parent="1">
          <mxGeometry x="600" y="200" width="100" height="40" as="geometry" />
        </mxCell>
        <mxCell id="m5_ttSZBMwDCDNjlKkau-13" value="CodPostal" style="ellipse;whiteSpace=wrap;html=1;align=center;" vertex="1" parent="1">
          <mxGeometry x="570" y="120" width="100" height="40" as="geometry" />
        </mxCell>
        <mxCell id="m5_ttSZBMwDCDNjlKkau-14" value="Localidade" style="ellipse;whiteSpace=wrap;html=1;align=center;" vertex="1" parent="1">
          <mxGeometry x="440" y="100" width="100" height="40" as="geometry" />
        </mxCell>
        <mxCell id="m5_ttSZBMwDCDNjlKkau-15" value="" style="endArrow=none;html=1;rounded=0;exitX=0;exitY=0.5;exitDx=0;exitDy=0;entryX=0.77;entryY=0.1;entryDx=0;entryDy=0;entryPerimeter=0;" edge="1" parent="1" source="m5_ttSZBMwDCDNjlKkau-13" target="m5_ttSZBMwDCDNjlKkau-10">
          <mxGeometry width="50" height="50" relative="1" as="geometry">
            <mxPoint x="390" y="410" as="sourcePoint" />
            <mxPoint x="440" y="360" as="targetPoint" />
          </mxGeometry>
        </mxCell>
        <mxCell id="m5_ttSZBMwDCDNjlKkau-16" value="" style="endArrow=none;html=1;rounded=0;exitX=0;exitY=0.5;exitDx=0;exitDy=0;entryX=1;entryY=0;entryDx=0;entryDy=0;" edge="1" parent="1" source="m5_ttSZBMwDCDNjlKkau-12" target="m5_ttSZBMwDCDNjlKkau-10">
          <mxGeometry width="50" height="50" relative="1" as="geometry">
            <mxPoint x="390" y="410" as="sourcePoint" />
            <mxPoint x="440" y="360" as="targetPoint" />
          </mxGeometry>
        </mxCell>
        <mxCell id="m5_ttSZBMwDCDNjlKkau-17" value="" style="endArrow=none;html=1;rounded=0;exitX=0.5;exitY=0;exitDx=0;exitDy=0;entryX=0.5;entryY=1;entryDx=0;entryDy=0;" edge="1" parent="1" source="m5_ttSZBMwDCDNjlKkau-7" target="m5_ttSZBMwDCDNjlKkau-10">
          <mxGeometry width="50" height="50" relative="1" as="geometry">
            <mxPoint x="390" y="410" as="sourcePoint" />
            <mxPoint x="440" y="360" as="targetPoint" />
          </mxGeometry>
        </mxCell>
        <mxCell id="m5_ttSZBMwDCDNjlKkau-18" value="" style="endArrow=none;html=1;rounded=0;exitX=1;exitY=0.5;exitDx=0;exitDy=0;entryX=0;entryY=0.5;entryDx=0;entryDy=0;" edge="1" parent="1" source="m5_ttSZBMwDCDNjlKkau-10" target="m5_ttSZBMwDCDNjlKkau-11">
          <mxGeometry width="50" height="50" relative="1" as="geometry">
            <mxPoint x="390" y="410" as="sourcePoint" />
            <mxPoint x="440" y="360" as="targetPoint" />
          </mxGeometry>
        </mxCell>
        <mxCell id="m5_ttSZBMwDCDNjlKkau-19" value="" style="endArrow=none;html=1;rounded=0;exitX=1;exitY=1;exitDx=0;exitDy=0;entryX=0;entryY=0.5;entryDx=0;entryDy=0;" edge="1" parent="1" source="m5_ttSZBMwDCDNjlKkau-1" target="m5_ttSZBMwDCDNjlKkau-10">
          <mxGeometry width="50" height="50" relative="1" as="geometry">
            <mxPoint x="390" y="410" as="sourcePoint" />
            <mxPoint x="440" y="360" as="targetPoint" />
          </mxGeometry>
        </mxCell>
        <mxCell id="m5_ttSZBMwDCDNjlKkau-20" value="" style="endArrow=none;html=1;rounded=0;exitX=0.5;exitY=1;exitDx=0;exitDy=0;entryX=0.5;entryY=0;entryDx=0;entryDy=0;" edge="1" parent="1" source="m5_ttSZBMwDCDNjlKkau-9" target="m5_ttSZBMwDCDNjlKkau-1">
          <mxGeometry width="50" height="50" relative="1" as="geometry">
            <mxPoint x="390" y="410" as="sourcePoint" />
            <mxPoint x="440" y="360" as="targetPoint" />
          </mxGeometry>
        </mxCell>
        <mxCell id="m5_ttSZBMwDCDNjlKkau-21" value="" style="endArrow=none;html=1;rounded=0;exitX=0;exitY=0.5;exitDx=0;exitDy=0;entryX=1;entryY=0.5;entryDx=0;entryDy=0;" edge="1" parent="1" source="m5_ttSZBMwDCDNjlKkau-1" target="m5_ttSZBMwDCDNjlKkau-8">
          <mxGeometry width="50" height="50" relative="1" as="geometry">
            <mxPoint x="390" y="410" as="sourcePoint" />
            <mxPoint x="440" y="360" as="targetPoint" />
          </mxGeometry>
        </mxCell>
        <mxCell id="m5_ttSZBMwDCDNjlKkau-22" value="" style="endArrow=none;html=1;rounded=0;exitX=0.5;exitY=1;exitDx=0;exitDy=0;entryX=0.5;entryY=0;entryDx=0;entryDy=0;" edge="1" parent="1" source="m5_ttSZBMwDCDNjlKkau-14" target="m5_ttSZBMwDCDNjlKkau-10">
          <mxGeometry width="50" height="50" relative="1" as="geometry">
            <mxPoint x="390" y="410" as="sourcePoint" />
            <mxPoint x="440" y="360" as="targetPoint" />
          </mxGeometry>
        </mxCell>
        <mxCell id="m5_ttSZBMwDCDNjlKkau-23" value="NumConta" style="ellipse;whiteSpace=wrap;html=1;align=center;fontStyle=4;" vertex="1" parent="1">
          <mxGeometry x="240" y="680" width="100" height="40" as="geometry" />
        </mxCell>
        <mxCell id="m5_ttSZBMwDCDNjlKkau-24" value="NomeConta" style="ellipse;whiteSpace=wrap;html=1;align=center;" vertex="1" parent="1">
          <mxGeometry x="90" y="510" width="100" height="40" as="geometry" />
        </mxCell>
        <mxCell id="m5_ttSZBMwDCDNjlKkau-25" value="Saldo" style="ellipse;whiteSpace=wrap;html=1;align=center;" vertex="1" parent="1">
          <mxGeometry x="270" y="470" width="100" height="40" as="geometry" />
        </mxCell>
        <mxCell id="m5_ttSZBMwDCDNjlKkau-26" value="DataCriação" style="ellipse;whiteSpace=wrap;html=1;align=center;" vertex="1" parent="1">
          <mxGeometry x="420" y="540" width="100" height="40" as="geometry" />
        </mxCell>
        <mxCell id="m5_ttSZBMwDCDNjlKkau-27" value="" style="endArrow=none;html=1;rounded=0;exitX=1;exitY=1;exitDx=0;exitDy=0;entryX=0;entryY=0.75;entryDx=0;entryDy=0;" edge="1" parent="1" source="m5_ttSZBMwDCDNjlKkau-24" target="m5_ttSZBMwDCDNjlKkau-2">
          <mxGeometry width="50" height="50" relative="1" as="geometry">
            <mxPoint x="370" y="490" as="sourcePoint" />
            <mxPoint x="420" y="440" as="targetPoint" />
          </mxGeometry>
        </mxCell>
        <mxCell id="m5_ttSZBMwDCDNjlKkau-28" value="" style="endArrow=none;html=1;rounded=0;entryX=0.5;entryY=0;entryDx=0;entryDy=0;exitX=0.5;exitY=1;exitDx=0;exitDy=0;" edge="1" parent="1" source="m5_ttSZBMwDCDNjlKkau-2" target="m5_ttSZBMwDCDNjlKkau-23">
          <mxGeometry width="50" height="50" relative="1" as="geometry">
            <mxPoint x="370" y="490" as="sourcePoint" />
            <mxPoint x="420" y="440" as="targetPoint" />
          </mxGeometry>
        </mxCell>
        <mxCell id="m5_ttSZBMwDCDNjlKkau-29" value="" style="endArrow=none;html=1;rounded=0;entryX=0;entryY=0.5;entryDx=0;entryDy=0;exitX=1;exitY=0.5;exitDx=0;exitDy=0;" edge="1" parent="1" source="m5_ttSZBMwDCDNjlKkau-2" target="m5_ttSZBMwDCDNjlKkau-26">
          <mxGeometry width="50" height="50" relative="1" as="geometry">
            <mxPoint x="370" y="490" as="sourcePoint" />
            <mxPoint x="420" y="440" as="targetPoint" />
          </mxGeometry>
        </mxCell>
        <mxCell id="m5_ttSZBMwDCDNjlKkau-30" value="" style="endArrow=none;html=1;rounded=0;exitX=0.5;exitY=0;exitDx=0;exitDy=0;entryX=0.5;entryY=1;entryDx=0;entryDy=0;" edge="1" parent="1" source="m5_ttSZBMwDCDNjlKkau-2" target="m5_ttSZBMwDCDNjlKkau-25">
          <mxGeometry width="50" height="50" relative="1" as="geometry">
            <mxPoint x="370" y="490" as="sourcePoint" />
            <mxPoint x="420" y="440" as="targetPoint" />
          </mxGeometry>
        </mxCell>
        <mxCell id="m5_ttSZBMwDCDNjlKkau-31" value="Attribute" style="ellipse;whiteSpace=wrap;html=1;align=center;fontStyle=4;" vertex="1" parent="1">
          <mxGeometry x="1060" y="240" width="100" height="40" as="geometry" />
        </mxCell>
        <mxCell id="m5_ttSZBMwDCDNjlKkau-32" value="Attribute" style="ellipse;whiteSpace=wrap;html=1;align=center;" vertex="1" parent="1">
          <mxGeometry x="910" y="170" width="100" height="40" as="geometry" />
        </mxCell>
        <mxCell id="m5_ttSZBMwDCDNjlKkau-33" value="Attribute" style="ellipse;whiteSpace=wrap;html=1;align=center;" vertex="1" parent="1">
          <mxGeometry x="1240" y="160" width="100" height="40" as="geometry" />
        </mxCell>
        <mxCell id="m5_ttSZBMwDCDNjlKkau-34" value="Attribute" style="ellipse;whiteSpace=wrap;html=1;align=center;" vertex="1" parent="1">
          <mxGeometry x="1060" y="20" width="100" height="40" as="geometry" />
        </mxCell>
        <mxCell id="m5_ttSZBMwDCDNjlKkau-35" value="" style="endArrow=none;html=1;rounded=0;exitX=0.5;exitY=1;exitDx=0;exitDy=0;entryX=0.5;entryY=0;entryDx=0;entryDy=0;" edge="1" parent="1" source="m5_ttSZBMwDCDNjlKkau-34" target="m5_ttSZBMwDCDNjlKkau-4">
          <mxGeometry width="50" height="50" relative="1" as="geometry">
            <mxPoint x="890" y="290" as="sourcePoint" />
            <mxPoint x="940" y="240" as="targetPoint" />
          </mxGeometry>
        </mxCell>
        <mxCell id="m5_ttSZBMwDCDNjlKkau-36" value="" style="endArrow=none;html=1;rounded=0;entryX=1;entryY=0.5;entryDx=0;entryDy=0;exitX=0;exitY=1;exitDx=0;exitDy=0;" edge="1" parent="1" source="m5_ttSZBMwDCDNjlKkau-4" target="m5_ttSZBMwDCDNjlKkau-32">
          <mxGeometry width="50" height="50" relative="1" as="geometry">
            <mxPoint x="890" y="290" as="sourcePoint" />
            <mxPoint x="940" y="240" as="targetPoint" />
          </mxGeometry>
        </mxCell>
        <mxCell id="m5_ttSZBMwDCDNjlKkau-37" value="" style="endArrow=none;html=1;rounded=0;exitX=0.5;exitY=0;exitDx=0;exitDy=0;entryX=0.5;entryY=1;entryDx=0;entryDy=0;" edge="1" parent="1" source="m5_ttSZBMwDCDNjlKkau-31" target="m5_ttSZBMwDCDNjlKkau-4">
          <mxGeometry width="50" height="50" relative="1" as="geometry">
            <mxPoint x="890" y="290" as="sourcePoint" />
            <mxPoint x="940" y="240" as="targetPoint" />
          </mxGeometry>
        </mxCell>
        <mxCell id="m5_ttSZBMwDCDNjlKkau-38" value="" style="endArrow=none;html=1;rounded=0;entryX=0;entryY=0.5;entryDx=0;entryDy=0;exitX=1;exitY=1;exitDx=0;exitDy=0;" edge="1" parent="1" source="m5_ttSZBMwDCDNjlKkau-4" target="m5_ttSZBMwDCDNjlKkau-33">
          <mxGeometry width="50" height="50" relative="1" as="geometry">
            <mxPoint x="890" y="290" as="sourcePoint" />
            <mxPoint x="940" y="240" as="targetPoint" />
          </mxGeometry>
        </mxCell>
        <mxCell id="m5_ttSZBMwDCDNjlKkau-39" value="NumCliente" style="ellipse;whiteSpace=wrap;html=1;align=center;fontStyle=4;" vertex="1" parent="1">
          <mxGeometry x="1070" y="470" width="100" height="40" as="geometry" />
        </mxCell>
        <mxCell id="m5_ttSZBMwDCDNjlKkau-40" value="VencimentoAnual" style="ellipse;whiteSpace=wrap;html=1;align=center;" vertex="1" parent="1">
          <mxGeometry x="900" y="520" width="100" height="40" as="geometry" />
        </mxCell>
        <mxCell id="m5_ttSZBMwDCDNjlKkau-41" value="Nome" style="ellipse;whiteSpace=wrap;html=1;align=center;" vertex="1" parent="1">
          <mxGeometry x="1250" y="520" width="100" height="40" as="geometry" />
        </mxCell>
        <mxCell id="m5_ttSZBMwDCDNjlKkau-42" value="DataNascimento" style="ellipse;whiteSpace=wrap;html=1;align=center;" vertex="1" parent="1">
          <mxGeometry x="1270" y="640" width="100" height="40" as="geometry" />
        </mxCell>
        <mxCell id="m5_ttSZBMwDCDNjlKkau-43" value="Genero" style="ellipse;whiteSpace=wrap;html=1;align=center;" vertex="1" parent="1">
          <mxGeometry x="960" y="670" width="100" height="40" as="geometry" />
        </mxCell>
        <mxCell id="m5_ttSZBMwDCDNjlKkau-45" value="" style="endArrow=none;html=1;rounded=0;exitX=0;exitY=0.5;exitDx=0;exitDy=0;entryX=1;entryY=0;entryDx=0;entryDy=0;" edge="1" parent="1" source="m5_ttSZBMwDCDNjlKkau-41" target="m5_ttSZBMwDCDNjlKkau-3">
          <mxGeometry width="50" height="50" relative="1" as="geometry">
            <mxPoint x="890" y="590" as="sourcePoint" />
            <mxPoint x="940" y="540" as="targetPoint" />
          </mxGeometry>
        </mxCell>
        <mxCell id="m5_ttSZBMwDCDNjlKkau-46" value="" style="endArrow=none;html=1;rounded=0;exitX=0;exitY=0;exitDx=0;exitDy=0;entryX=1;entryY=1;entryDx=0;entryDy=0;" edge="1" parent="1" source="m5_ttSZBMwDCDNjlKkau-42" target="m5_ttSZBMwDCDNjlKkau-3">
          <mxGeometry width="50" height="50" relative="1" as="geometry">
            <mxPoint x="890" y="590" as="sourcePoint" />
            <mxPoint x="940" y="540" as="targetPoint" />
          </mxGeometry>
        </mxCell>
        <mxCell id="m5_ttSZBMwDCDNjlKkau-47" value="" style="endArrow=none;html=1;rounded=0;exitX=1;exitY=0;exitDx=0;exitDy=0;entryX=0.25;entryY=1;entryDx=0;entryDy=0;" edge="1" parent="1" source="m5_ttSZBMwDCDNjlKkau-43" target="m5_ttSZBMwDCDNjlKkau-3">
          <mxGeometry width="50" height="50" relative="1" as="geometry">
            <mxPoint x="890" y="590" as="sourcePoint" />
            <mxPoint x="940" y="540" as="targetPoint" />
          </mxGeometry>
        </mxCell>
        <mxCell id="m5_ttSZBMwDCDNjlKkau-48" value="" style="endArrow=none;html=1;rounded=0;exitX=0;exitY=0.5;exitDx=0;exitDy=0;entryX=1;entryY=1;entryDx=0;entryDy=0;" edge="1" parent="1" source="m5_ttSZBMwDCDNjlKkau-3" target="m5_ttSZBMwDCDNjlKkau-40">
          <mxGeometry width="50" height="50" relative="1" as="geometry">
            <mxPoint x="890" y="590" as="sourcePoint" />
            <mxPoint x="940" y="540" as="targetPoint" />
          </mxGeometry>
        </mxCell>
        <mxCell id="m5_ttSZBMwDCDNjlKkau-49" value="" style="endArrow=none;html=1;rounded=0;exitX=0.5;exitY=0;exitDx=0;exitDy=0;entryX=0.5;entryY=1;entryDx=0;entryDy=0;" edge="1" parent="1" source="m5_ttSZBMwDCDNjlKkau-3" target="m5_ttSZBMwDCDNjlKkau-39">
          <mxGeometry width="50" height="50" relative="1" as="geometry">
            <mxPoint x="890" y="590" as="sourcePoint" />
            <mxPoint x="940" y="540" as="targetPoint" />
          </mxGeometry>
        </mxCell>
        <mxCell id="m5_ttSZBMwDCDNjlKkau-50" value="PERTENCE_A" style="shape=rhombus;perimeter=rhombusPerimeter;whiteSpace=wrap;html=1;align=center;" vertex="1" parent="1">
          <mxGeometry x="400" y="890" width="120" height="60" as="geometry" />
        </mxCell>
        <mxCell id="m5_ttSZBMwDCDNjlKkau-51" value="CLIENTE" style="whiteSpace=wrap;html=1;align=center;" vertex="1" parent="1">
          <mxGeometry x="210" y="900" width="100" height="40" as="geometry" />
        </mxCell>
        <mxCell id="m5_ttSZBMwDCDNjlKkau-52" value="BANCO" style="whiteSpace=wrap;html=1;align=center;" vertex="1" parent="1">
          <mxGeometry x="620" y="900" width="100" height="40" as="geometry" />
        </mxCell>
        <mxCell id="m5_ttSZBMwDCDNjlKkau-57" value="CONTA_DE" style="shape=rhombus;perimeter=rhombusPerimeter;whiteSpace=wrap;html=1;align=center;" vertex="1" parent="1">
          <mxGeometry x="390" y="1060" width="120" height="60" as="geometry" />
        </mxCell>
        <mxCell id="m5_ttSZBMwDCDNjlKkau-58" value="CONTA" style="whiteSpace=wrap;html=1;align=center;" vertex="1" parent="1">
          <mxGeometry x="190" y="1070" width="100" height="40" as="geometry" />
        </mxCell>
        <mxCell id="m5_ttSZBMwDCDNjlKkau-59" value="CLIENTE" style="whiteSpace=wrap;html=1;align=center;" vertex="1" parent="1">
          <mxGeometry x="650" y="1070" width="100" height="40" as="geometry" />
        </mxCell>
        <mxCell id="m5_ttSZBMwDCDNjlKkau-62" value="" style="shape=link;html=1;rounded=0;exitX=1;exitY=0.5;exitDx=0;exitDy=0;entryX=0;entryY=0.5;entryDx=0;entryDy=0;" edge="1" parent="1" source="m5_ttSZBMwDCDNjlKkau-51" target="m5_ttSZBMwDCDNjlKkau-50">
          <mxGeometry relative="1" as="geometry">
            <mxPoint x="350" y="1050" as="sourcePoint" />
            <mxPoint x="510" y="1050" as="targetPoint" />
          </mxGeometry>
        </mxCell>
        <mxCell id="m5_ttSZBMwDCDNjlKkau-64" value="M" style="resizable=0;html=1;whiteSpace=wrap;align=right;verticalAlign=bottom;" connectable="0" vertex="1" parent="m5_ttSZBMwDCDNjlKkau-62">
          <mxGeometry x="1" relative="1" as="geometry">
            <mxPoint x="-70" as="offset" />
          </mxGeometry>
        </mxCell>
        <mxCell id="m5_ttSZBMwDCDNjlKkau-68" value="" style="endArrow=none;html=1;rounded=0;exitX=1;exitY=0.5;exitDx=0;exitDy=0;entryX=0;entryY=0.5;entryDx=0;entryDy=0;" edge="1" parent="1" source="m5_ttSZBMwDCDNjlKkau-50" target="m5_ttSZBMwDCDNjlKkau-52">
          <mxGeometry relative="1" as="geometry">
            <mxPoint x="570" y="1020" as="sourcePoint" />
            <mxPoint x="730" y="1020" as="targetPoint" />
          </mxGeometry>
        </mxCell>
        <mxCell id="m5_ttSZBMwDCDNjlKkau-70" value="N" style="resizable=0;html=1;whiteSpace=wrap;align=right;verticalAlign=bottom;" connectable="0" vertex="1" parent="m5_ttSZBMwDCDNjlKkau-68">
          <mxGeometry x="1" relative="1" as="geometry">
            <mxPoint x="-80" as="offset" />
          </mxGeometry>
        </mxCell>
        <mxCell id="m5_ttSZBMwDCDNjlKkau-71" value="" style="shape=link;html=1;rounded=0;exitX=1;exitY=0.5;exitDx=0;exitDy=0;entryX=0;entryY=0.5;entryDx=0;entryDy=0;" edge="1" parent="1" source="m5_ttSZBMwDCDNjlKkau-58" target="m5_ttSZBMwDCDNjlKkau-57">
          <mxGeometry relative="1" as="geometry">
            <mxPoint x="340" y="1140" as="sourcePoint" />
            <mxPoint x="500" y="1140" as="targetPoint" />
          </mxGeometry>
        </mxCell>
        <mxCell id="m5_ttSZBMwDCDNjlKkau-72" value="M" style="resizable=0;html=1;whiteSpace=wrap;align=right;verticalAlign=bottom;" connectable="0" vertex="1" parent="m5_ttSZBMwDCDNjlKkau-71">
          <mxGeometry x="1" relative="1" as="geometry" />
        </mxCell>
        <mxCell id="m5_ttSZBMwDCDNjlKkau-73" value="" style="shape=link;html=1;rounded=0;exitX=1;exitY=0.5;exitDx=0;exitDy=0;entryX=0;entryY=0.5;entryDx=0;entryDy=0;" edge="1" parent="1" source="m5_ttSZBMwDCDNjlKkau-57" target="m5_ttSZBMwDCDNjlKkau-59">
          <mxGeometry relative="1" as="geometry">
            <mxPoint x="740" y="1150" as="sourcePoint" />
            <mxPoint x="900" y="1150" as="targetPoint" />
          </mxGeometry>
        </mxCell>
        <mxCell id="m5_ttSZBMwDCDNjlKkau-74" value="N" style="resizable=0;html=1;whiteSpace=wrap;align=right;verticalAlign=bottom;" connectable="0" vertex="1" parent="m5_ttSZBMwDCDNjlKkau-73">
          <mxGeometry x="1" relative="1" as="geometry" />
        </mxCell>
        <mxCell id="m5_ttSZBMwDCDNjlKkau-75" value="MOVIMENTOS" style="whiteSpace=wrap;html=1;align=center;" vertex="1" parent="1">
          <mxGeometry x="920" y="900" width="100" height="40" as="geometry" />
        </mxCell>
        <mxCell id="m5_ttSZBMwDCDNjlKkau-76" value="MOVIMENTOS_DE" style="shape=rhombus;perimeter=rhombusPerimeter;whiteSpace=wrap;html=1;align=center;" vertex="1" parent="1">
          <mxGeometry x="1140" y="890" width="140" height="60" as="geometry" />
        </mxCell>
        <mxCell id="m5_ttSZBMwDCDNjlKkau-77" value="CONTA" style="whiteSpace=wrap;html=1;align=center;" vertex="1" parent="1">
          <mxGeometry x="1380" y="900" width="100" height="40" as="geometry" />
        </mxCell>
        <mxCell id="m5_ttSZBMwDCDNjlKkau-78" value="" style="shape=link;html=1;rounded=0;exitX=1;exitY=0.5;exitDx=0;exitDy=0;entryX=0;entryY=0.5;entryDx=0;entryDy=0;" edge="1" parent="1" source="m5_ttSZBMwDCDNjlKkau-75" target="m5_ttSZBMwDCDNjlKkau-76">
          <mxGeometry relative="1" as="geometry">
            <mxPoint x="1100" y="1000" as="sourcePoint" />
            <mxPoint x="1260" y="1000" as="targetPoint" />
          </mxGeometry>
        </mxCell>
        <mxCell id="m5_ttSZBMwDCDNjlKkau-79" value="1" style="resizable=0;html=1;whiteSpace=wrap;align=right;verticalAlign=bottom;" connectable="0" vertex="1" parent="m5_ttSZBMwDCDNjlKkau-78">
          <mxGeometry x="1" relative="1" as="geometry" />
        </mxCell>
        <mxCell id="m5_ttSZBMwDCDNjlKkau-80" value="" style="shape=link;html=1;rounded=0;exitX=1;exitY=0.5;exitDx=0;exitDy=0;entryX=0;entryY=0.5;entryDx=0;entryDy=0;" edge="1" parent="1" source="m5_ttSZBMwDCDNjlKkau-76" target="m5_ttSZBMwDCDNjlKkau-77">
          <mxGeometry relative="1" as="geometry">
            <mxPoint x="1240" y="1020" as="sourcePoint" />
            <mxPoint x="1400" y="1020" as="targetPoint" />
          </mxGeometry>
        </mxCell>
        <mxCell id="m5_ttSZBMwDCDNjlKkau-81" value="N" style="resizable=0;html=1;whiteSpace=wrap;align=right;verticalAlign=bottom;" connectable="0" vertex="1" parent="m5_ttSZBMwDCDNjlKkau-80">
          <mxGeometry x="1" relative="1" as="geometry" />
        </mxCell>
      </root>
    </mxGraphModel>
  </diagram>
</mxfile>
